<?xml version="1.0" encoding="UTF-8" standalone="no"?>
<!DOCTYPE svg PUBLIC "-//W3C//DTD SVG 1.1//EN"
 "http://www.w3.org/Graphics/SVG/1.1/DTD/svg11.dtd">
<!-- Generated by graphviz version 2.29.20120711.0446 (20120711.0446)
 -->
<!-- Title: SketchTieredSlaLadder Pages: 1 -->
<svg width="819pt" height="1126pt"
 viewBox="0.00 0.00 819.08 1125.60" xmlns="http://www.w3.org/2000/svg" xmlns:xlink="http://www.w3.org/1999/xlink">
<g id="graph0" class="graph" transform="scale(1 1) rotate(0) translate(10.8 1114.8)">
<title>SketchTieredSlaLadder</title>
<polygon fill="white" stroke="white" points="-10.8,11.8 -10.8,-1114.8 809.276,-1114.8 809.276,11.8 -10.8,11.8"/>
<!-- p_REQUEST&#45;&gt;t_Sla_Start -->
<g id="edge1" class="edge"><title>p_REQUEST&#45;&gt;t_Sla_Start</title>
<path fill="none" stroke="#333333" d="M232.476,-1077.85C232.476,-1066.22 232.476,-1048.34 232.476,-1033.86"/>
<polygon fill="#333333" stroke="#333333" points="235.976,-1033.61 232.476,-1023.61 228.976,-1033.61 235.976,-1033.61"/>
</g>
<!-- p_PRIMARY_CALL&#45;&gt;t_Sla_CallPrimary -->
<g id="edge5" class="edge"><title>p_PRIMARY_CALL&#45;&gt;t_Sla_CallPrimary</title>
<path fill="none" stroke="#333333" d="M98.4761,-823.85C98.4761,-812.216 98.4761,-794.342 98.4761,-779.86"/>
<polygon fill="#333333" stroke="#333333" points="101.976,-779.606 98.4761,-769.606 94.9762,-779.606 101.976,-779.606"/>
</g>
<!-- p_RUNG_1&#45;&gt;t_Sla_AnswerPrimary -->
<g id="edge8" class="edge"><title>p_RUNG_1&#45;&gt;t_Sla_AnswerPrimary</title>
<path fill="none" stroke="#333333" d="M234.123,-823.606C229.244,-796.792 218.476,-731.347 218.476,-676 218.476,-676 218.476,-676 218.476,-514 218.476,-469.723 211.293,-455.972 185.476,-420 171.164,-400.057 149.403,-383.052 131.226,-371.035"/>
<polygon fill="#333333" stroke="#333333" points="132.949,-367.983 122.638,-365.546 129.179,-373.881 132.949,-367.983"/>
</g>
<!-- p_RUNG_1&#45;&gt;t_Sla_Escalate1 -->
<g id="edge12" class="edge"><title>p_RUNG_1&#45;&gt;t_Sla_Escalate1</title>
<path fill="none" stroke="#333333" d="M256.609,-825.541C281.657,-812.53 324.843,-790.095 355.383,-774.23"/>
<polygon fill="#333333" stroke="#333333" points="357.16,-777.251 364.42,-769.536 353.933,-771.04 357.16,-777.251"/>
</g>
<!-- p_ANSWERED&#45;&gt;t_Sla_DiscardPrimary -->
<g id="edge36" class="edge"><title>p_ANSWERED&#45;&gt;t_Sla_DiscardPrimary</title>
<path fill="none" stroke="#6c757d" stroke-dasharray="5,2" d="M453.989,-176.32C438.411,-162.83 412.514,-140.404 393.682,-124.096"/>
<polygon fill="#6c757d" stroke="#6c757d" points="395.945,-121.426 386.095,-117.525 391.363,-126.717 395.945,-121.426"/>
</g>
<!-- p_ANSWERED&#45;&gt;t_Sla_DiscardFallback -->
<g id="edge39" class="edge"><title>p_ANSWERED&#45;&gt;t_Sla_DiscardFallback</title>
<path fill="none" stroke="#6c757d" stroke-dasharray="5,2" d="M480.825,-176.32C496.173,-162.89 521.643,-140.604 540.259,-124.315"/>
<polygon fill="#6c757d" stroke="#6c757d" points="542.798,-126.744 548.019,-117.525 538.188,-121.476 542.798,-126.744"/>
</g>
<!-- p_PRIMARY_DONE&#45;&gt;t_Sla_AnswerPrimary -->
<g id="edge7" class="edge"><title>p_PRIMARY_DONE&#45;&gt;t_Sla_AnswerPrimary</title>
<path fill="none" stroke="#333333" d="M98.4761,-419.85C98.4761,-408.216 98.4761,-390.342 98.4761,-375.86"/>
<polygon fill="#333333" stroke="#333333" points="101.976,-375.606 98.4761,-365.606 94.9762,-375.606 101.976,-375.606"/>
</g>
<!-- p_PRIMARY_DONE&#45;&gt;t_Sla_AnswerPrimaryLate -->
<g id="edge18" class="edge"><title>p_PRIMARY_DONE&#45;&gt;t_Sla_AnswerPrimaryLate</title>
<path fill="none" stroke="#333333" d="M126.146,-420.876C159.325,-407.538 215.32,-385.028 254.227,-369.387"/>
<polygon fill="#333333" stroke="#333333" points="255.753,-372.546 263.726,-365.568 253.142,-366.051 255.753,-372.546"/>
</g>
<!-- p_PRIMARY_DONE&#45;&gt;t_Sla_DiscardPrimary -->
<g id="edge34" class="edge"><title>p_PRIMARY_DONE&#45;&gt;t_Sla_DiscardPrimary</title>
<path fill="none" stroke="#333333" d="M71.8697,-420.753C37.6849,-404.539 -15.0605,-372.505 4.47614,-336 69.0791,-215.288 226.792,-148.958 312.587,-120.694"/>
<polygon fill="#333333" stroke="#333333" points="313.737,-124 322.176,-117.595 311.584,-117.34 313.737,-124"/>
</g>
<!-- p_RUNG_2&#45;&gt;t_Sla_AnswerPrimaryLate -->
<g id="edge19" class="edge"><title>p_RUNG_2&#45;&gt;t_Sla_AnswerPrimaryLate</title>
<path fill="none" stroke="#333333" d="M440.988,-583.9C417.067,-545.245 342.245,-424.342 311.194,-374.167"/>
<polygon fill="#333333" stroke="#333333" points="314.166,-372.319 305.928,-365.657 308.214,-376.002 314.166,-372.319"/>
</g>
<!-- p_RUNG_2&#45;&gt;t_Sla_AnswerFallback -->
<g id="edge24" class="edge"><title>p_RUNG_2&#45;&gt;t_Sla_AnswerFallback</title>
<path fill="none" stroke="#333333" d="M450.757,-583.9C457.969,-545.646 480.367,-426.842 489.998,-375.751"/>
<polygon fill="#333333" stroke="#333333" points="493.488,-376.132 491.901,-365.657 486.609,-374.836 493.488,-376.132"/>
</g>
<!-- p_RUNG_2&#45;&gt;t_Sla_Escalate2 -->
<g id="edge28" class="edge"><title>p_RUNG_2&#45;&gt;t_Sla_Escalate2</title>
<path fill="none" stroke="#333333" d="M464.327,-584.876C482.475,-572.141 512.538,-551.044 534.619,-535.549"/>
<polygon fill="#333333" stroke="#333333" points="536.769,-538.316 542.944,-529.707 532.748,-532.586 536.769,-538.316"/>
</g>
<!-- p_FALLBACK_CALL&#45;&gt;t_Sla_CallFallback -->
<g id="edge16" class="edge"><title>p_FALLBACK_CALL&#45;&gt;t_Sla_CallFallback</title>
<path fill="none" stroke="#333333" d="M663.196,-583.85C672.96,-571.646 688.216,-552.575 700.071,-537.756"/>
<polygon fill="#333333" stroke="#333333" points="703.077,-539.601 706.591,-529.606 697.611,-535.229 703.077,-539.601"/>
</g>
<!-- p_FALLBACK_DONE&#45;&gt;t_Sla_AnswerFallback -->
<g id="edge23" class="edge"><title>p_FALLBACK_DONE&#45;&gt;t_Sla_AnswerFallback</title>
<path fill="none" stroke="#333333" d="M686.469,-420.876C648.974,-407.425 585.475,-384.645 541.838,-368.991"/>
<polygon fill="#333333" stroke="#333333" points="542.892,-365.65 532.297,-365.568 540.528,-372.239 542.892,-365.65"/>
</g>
<!-- p_FALLBACK_DONE&#45;&gt;t_Sla_DiscardFallback -->
<g id="edge37" class="edge"><title>p_FALLBACK_DONE&#45;&gt;t_Sla_DiscardFallback</title>
<path fill="none" stroke="#333333" d="M722.246,-419.869C728.811,-401.349 738.817,-365.107 729.476,-336 700.866,-246.847 623.982,-162.847 585.726,-125.009"/>
<polygon fill="#333333" stroke="#333333" points="587.783,-122.126 578.18,-117.65 582.896,-127.138 587.783,-122.126"/>
</g>
<!-- p_RUNG_3&#45;&gt;t_Sla_AnswerCached -->
<g id="edge30" class="edge"><title>p_RUNG_3&#45;&gt;t_Sla_AnswerCached</title>
<path fill="none" stroke="#333333" d="M580.514,-420.538C594.834,-407.949 618.104,-387.492 635.5,-372.199"/>
<polygon fill="#333333" stroke="#333333" points="637.827,-374.813 643.026,-365.582 633.205,-369.556 637.827,-374.813"/>
</g>
<!-- t_Sla_Start&#45;&gt;j_Sla_Start__and_0 -->
<g id="edge2" class="edge"><title>t_Sla_Start&#45;&gt;j_Sla_Start__and_0</title>
<path fill="none" stroke="#333333" d="M222.033,-994.343C210.033,-978.651 190.438,-953.027 178.286,-937.136"/>
<polygon fill="#333333" stroke="#333333" points="180.96,-934.871 172.105,-929.053 175.399,-939.123 180.96,-934.871"/>
</g>
<!-- t_Sla_Start&#45;&gt;n_Sla_Start__resets -->
<g id="edge40" class="edge"><title>t_Sla_Start&#45;&gt;n_Sla_Start__resets</title>
<path fill="none" stroke="#fd7e14" stroke-width="2" d="M243.08,-994.343C252.734,-981.91 267.23,-963.241 278.972,-948.119"/>
<polygon fill="#fd7e14" stroke="#fd7e14" points="281.795,-950.19 285.163,-940.145 276.266,-945.897 281.795,-950.19"/>
</g>
<!-- t_Sla_CallPrimary&#45;&gt;p_PRIMARY_DONE -->
<g id="edge6" class="edge"><title>t_Sla_CallPrimary&#45;&gt;p_PRIMARY_DONE</title>
<path fill="none" stroke="#333333" d="M98.4761,-740.25C98.4761,-690.36 98.4761,-518.556 98.4761,-456.546"/>
<polygon fill="#333333" stroke="#333333" points="101.976,-456.299 98.4761,-446.3 94.9762,-456.3 101.976,-456.299"/>
</g>
<!-- t_Sla_AnswerPrimary&#45;&gt;j_Sla_AnswerPrimary__and_0 -->
<g id="edge9" class="edge"><title>t_Sla_AnswerPrimary&#45;&gt;j_Sla_AnswerPrimary__and_0</title>
<path fill="none" stroke="#333333" d="M134.01,-336.413C178.317,-319.473 252.258,-291.201 285.444,-278.512"/>
<polygon fill="#333333" stroke="#333333" points="286.944,-281.686 295.035,-274.845 284.444,-275.148 286.944,-281.686"/>
</g>
<!-- t_Sla_Escalate1&#45;&gt;j_Sla_Escalate1__and_0 -->
<g id="edge13" class="edge"><title>t_Sla_Escalate1&#45;&gt;j_Sla_Escalate1__and_0</title>
<path fill="none" stroke="#333333" d="M400.579,-740.413C411.122,-726.235 427.567,-704.119 438.181,-689.845"/>
<polygon fill="#333333" stroke="#333333" points="441.035,-691.872 444.194,-681.759 435.418,-687.695 441.035,-691.872"/>
</g>
<!-- t_Sla_CallFallback&#45;&gt;p_FALLBACK_DONE -->
<g id="edge17" class="edge"><title>t_Sla_CallFallback&#45;&gt;p_FALLBACK_DONE</title>
<path fill="none" stroke="#333333" d="M717.476,-500.429C717.476,-488.399 717.476,-470.596 717.476,-456.448"/>
<polygon fill="#333333" stroke="#333333" points="720.976,-456.065 717.476,-446.065 713.976,-456.065 720.976,-456.065"/>
</g>
<!-- t_Sla_AnswerPrimaryLate&#45;&gt;j_Sla_AnswerPrimaryLate__and_0 -->
<g id="edge20" class="edge"><title>t_Sla_AnswerPrimaryLate&#45;&gt;j_Sla_AnswerPrimaryLate__and_0</title>
<path fill="none" stroke="#333333" d="M306.011,-336.413C314.655,-322.654 327.995,-301.418 336.972,-287.13"/>
<polygon fill="#333333" stroke="#333333" points="340.022,-288.854 342.377,-278.524 334.094,-285.13 340.022,-288.854"/>
</g>
<!-- t_Sla_AnswerFallback&#45;&gt;j_Sla_AnswerFallback__and_0 -->
<g id="edge25" class="edge"><title>t_Sla_AnswerFallback&#45;&gt;j_Sla_AnswerFallback__and_0</title>
<path fill="none" stroke="#333333" d="M485.941,-336.413C477.297,-322.654 463.957,-301.418 454.981,-287.13"/>
<polygon fill="#333333" stroke="#333333" points="457.858,-285.13 449.575,-278.524 451.931,-288.854 457.858,-285.13"/>
</g>
<!-- t_Sla_Escalate2&#45;&gt;p_RUNG_3 -->
<g id="edge29" class="edge"><title>t_Sla_Escalate2&#45;&gt;p_RUNG_3</title>
<path fill="none" stroke="#333333" d="M563.324,-500.429C564.076,-488.399 565.189,-470.596 566.073,-456.448"/>
<polygon fill="#333333" stroke="#333333" points="569.591,-456.264 566.722,-446.065 562.605,-455.827 569.591,-456.264"/>
</g>
<!-- t_Sla_AnswerCached&#45;&gt;j_Sla_AnswerCached__and_0 -->
<g id="edge31" class="edge"><title>t_Sla_AnswerCached&#45;&gt;j_Sla_AnswerCached__and_0</title>
<path fill="none" stroke="#333333" d="M629.039,-336.413C593.316,-319.926 534.338,-292.705 505.864,-279.563"/>
<polygon fill="#333333" stroke="#333333" points="507.102,-276.28 496.556,-275.268 504.169,-282.636 507.102,-276.28"/>
</g>
<!-- t_Sla_DiscardPrimary&#45;&gt;p_DISCARDED -->
<g id="edge35" class="edge"><title>t_Sla_DiscardPrimary&#45;&gt;p_DISCARDED</title>
<path fill="none" stroke="#333333" d="M386.329,-88.1291C401.199,-75.1172 423.689,-55.4391 441.063,-40.2361"/>
<polygon fill="#333333" stroke="#333333" points="443.42,-42.8251 448.641,-33.606 438.81,-37.557 443.42,-42.8251"/>
</g>
<!-- t_Sla_DiscardFallback&#45;&gt;p_DISCARDED -->
<g id="edge38" class="edge"><title>t_Sla_DiscardFallback&#45;&gt;p_DISCARDED</title>
<path fill="none" stroke="#333333" d="M547.459,-88.1291C532.34,-75.0364 509.427,-55.1944 491.827,-39.9534"/>
<polygon fill="#333333" stroke="#333333" points="494.012,-37.2159 484.162,-33.3153 489.43,-42.5075 494.012,-37.2159"/>
</g>
<!-- j_Sla_Start__and_0&#45;&gt;p_PRIMARY_CALL -->
<g id="edge3" class="edge"><title>j_Sla_Start__and_0&#45;&gt;p_PRIMARY_CALL</title>
<path fill="none" stroke="#333333" d="M162.733,-915.295C153.026,-903.618 130.493,-876.512 114.87,-857.721"/>
<polygon fill="#333333" stroke="#333333" points="117.537,-855.453 108.453,-850.001 112.154,-859.928 117.537,-855.453"/>
</g>
<!-- j_Sla_Start__and_0&#45;&gt;p_RUNG_1 -->
<g id="edge4" class="edge"><title>j_Sla_Start__and_0&#45;&gt;p_RUNG_1</title>
<path fill="none" stroke="#333333" d="M172.219,-915.295C181.979,-903.554 204.706,-876.216 220.337,-857.413"/>
<polygon fill="#333333" stroke="#333333" points="223.044,-859.632 226.746,-849.705 217.661,-855.157 223.044,-859.632"/>
</g>
<!-- j_Sla_AnswerPrimary__and_0&#45;&gt;p_EVENT_OUT -->
<g id="edge10" class="edge"><title>j_Sla_AnswerPrimary__and_0&#45;&gt;p_EVENT_OUT</title>
<path fill="none" stroke="#333333" d="M304.666,-262.037C307.59,-251.403 312.912,-232.052 317.304,-216.082"/>
<polygon fill="#333333" stroke="#333333" points="320.744,-216.771 320.021,-206.201 313.994,-214.915 320.744,-216.771"/>
</g>
<!-- j_Sla_AnswerPrimary__and_0&#45;&gt;p_ANSWERED -->
<g id="edge11" class="edge"><title>j_Sla_AnswerPrimary__and_0&#45;&gt;p_ANSWERED</title>
<path fill="none" stroke="#333333" d="M309.566,-266.562C330.947,-256.196 395.753,-224.775 435.387,-205.558"/>
<polygon fill="#333333" stroke="#333333" points="437.408,-208.468 444.88,-200.956 434.354,-202.169 437.408,-208.468"/>
</g>
<!-- j_Sla_Escalate1__and_0&#45;&gt;p_RUNG_2 -->
<g id="edge14" class="edge"><title>j_Sla_Escalate1__and_0&#45;&gt;p_RUNG_2</title>
<path fill="none" stroke="#333333" d="M448.476,-663.75C448.476,-652.644 448.476,-634.582 448.476,-620.197"/>
<polygon fill="#333333" stroke="#333333" points="451.976,-620.09 448.476,-610.09 444.976,-620.09 451.976,-620.09"/>
</g>
<!-- j_Sla_Escalate1__and_0&#45;&gt;p_FALLBACK_CALL -->
<g id="edge15" class="edge"><title>j_Sla_Escalate1__and_0&#45;&gt;p_FALLBACK_CALL</title>
<path fill="none" stroke="#333333" d="M455.772,-671.295C480.714,-662.048 563.808,-631.243 613.986,-612.64"/>
<polygon fill="#333333" stroke="#333333" points="615.396,-615.85 623.556,-609.092 612.963,-609.287 615.396,-615.85"/>
</g>
<!-- j_Sla_AnswerPrimaryLate__and_0&#45;&gt;p_EVENT_OUT -->
<g id="edge21" class="edge"><title>j_Sla_AnswerPrimaryLate__and_0&#45;&gt;p_EVENT_OUT</title>
<path fill="none" stroke="#333333" d="M344.286,-262.037C341.362,-251.403 336.04,-232.052 331.649,-216.082"/>
<polygon fill="#333333" stroke="#333333" points="334.958,-214.915 328.931,-206.201 328.208,-216.771 334.958,-214.915"/>
</g>
<!-- j_Sla_AnswerPrimaryLate__and_0&#45;&gt;p_ANSWERED -->
<g id="edge22" class="edge"><title>j_Sla_AnswerPrimaryLate__and_0&#45;&gt;p_ANSWERED</title>
<path fill="none" stroke="#333333" d="M352.643,-265.923C368.722,-255.292 412.66,-226.242 441.287,-207.315"/>
<polygon fill="#333333" stroke="#333333" points="443.577,-209.997 449.989,-201.562 439.717,-204.158 443.577,-209.997"/>
</g>
<!-- j_Sla_AnswerFallback__and_0&#45;&gt;p_EVENT_OUT -->
<g id="edge26" class="edge"><title>j_Sla_AnswerFallback__and_0&#45;&gt;p_EVENT_OUT</title>
<path fill="none" stroke="#333333" d="M439.309,-265.923C424.121,-255.881 384.074,-229.404 355.556,-210.549"/>
<polygon fill="#333333" stroke="#333333" points="357.388,-207.564 347.116,-204.968 353.527,-213.403 357.388,-207.564"/>
</g>
<!-- j_Sla_AnswerFallback__and_0&#45;&gt;p_ANSWERED -->
<g id="edge27" class="edge"><title>j_Sla_AnswerFallback__and_0&#45;&gt;p_ANSWERED</title>
<path fill="none" stroke="#333333" d="M447.666,-262.037C450.84,-250.495 456.838,-228.684 461.406,-212.073"/>
<polygon fill="#333333" stroke="#333333" points="464.88,-212.639 464.157,-202.069 458.131,-210.783 464.88,-212.639"/>
</g>
<!-- j_Sla_AnswerCached__and_0&#45;&gt;p_EVENT_OUT -->
<g id="edge32" class="edge"><title>j_Sla_AnswerCached__and_0&#45;&gt;p_EVENT_OUT</title>
<path fill="none" stroke="#333333" d="M482.386,-266.562C462.114,-256.733 402.803,-227.977 362.924,-208.641"/>
<polygon fill="#333333" stroke="#333333" points="364.262,-205.401 353.737,-204.187 361.208,-211.699 364.262,-205.401"/>
</g>
<!-- j_Sla_AnswerCached__and_0&#45;&gt;p_ANSWERED -->
<g id="edge33" class="edge"><title>j_Sla_AnswerCached__and_0&#45;&gt;p_ANSWERED</title>
<path fill="none" stroke="#333333" d="M487.286,-262.037C484.112,-250.495 478.114,-228.684 473.546,-212.073"/>
<polygon fill="#333333" stroke="#333333" points="476.821,-210.783 470.795,-202.069 470.072,-212.639 476.821,-210.783"/>
</g>
<!-- p_REQUEST -->
<g id="node1" class="node"><title>p_REQUEST</title>
<ellipse fill="#f8d7da" stroke="#721c24" stroke-width="2" stroke-dasharray="5,2" cx="232.476" cy="-1091" rx="49.2545" ry="13.0215"/>
<text text-anchor="middle" x="232.476" y="-1086.2" font-family="Helvetica,Arial,sans-serif" font-size="12.00">REQUEST</text>
</g>
<!-- p_PRIMARY_CALL -->
<g id="node2" class="node"><title>p_PRIMARY_CALL</title>
<ellipse fill="#ffffff" stroke="#333333" stroke-width="1.5" cx="98.4761" cy="-837" rx="72.4121" ry="13.0215"/>
<text text-anchor="middle" x="98.4761" y="-832.2" font-family="Helvetica,Arial,sans-serif" font-size="12.00">PRIMARY_CALL</text>
</g>
<!-- p_RUNG_1 -->
<g id="node3" class="node"><title>p_RUNG_1</title>
<ellipse fill="#ffffff" stroke="#333333" stroke-width="1.5" cx="236.476" cy="-837" rx="42.3617" ry="13.0215"/>
<text text-anchor="middle" x="236.476" y="-832.2" font-family="Helvetica,Arial,sans-serif" font-size="12.00">RUNG_1</text>
</g>
<!-- p_ANSWERED -->
<g id="node4" class="node"><title>p_ANSWERED</title>
<ellipse fill="#ffffff" stroke="#333333" stroke-width="1.5" cx="467.476" cy="-189" rx="57.2739" ry="13.0215"/>
<text text-anchor="middle" x="467.476" y="-184.2" font-family="Helvetica,Arial,sans-serif" font-size="12.00">ANSWERED</text>
</g>
<!-- p_DISCARDED -->
<g id="node5" class="node"><title>p_DISCARDED</title>
<ellipse fill="#cce5ff" stroke="#004085" stroke-width="2" cx="466.476" cy="-17" rx="58.2083" ry="13.019"/>
<ellipse fill="none" stroke="#004085" stroke-width="2" cx="466.476" cy="-17" rx="62.1911" ry="17.0215"/>
<text text-anchor="middle" x="466.476" y="-12.2" font-family="Helvetica,Arial,sans-serif" font-size="12.00">DISCARDED</text>
</g>
<!-- p_PRIMARY_DONE -->
<g id="node6" class="node"><title>p_PRIMARY_DONE</title>
<ellipse fill="#ffffff" stroke="#333333" stroke-width="1.5" cx="98.4761" cy="-433" rx="76.3466" ry="13.0215"/>
<text text-anchor="middle" x="98.4761" y="-428.2" font-family="Helvetica,Arial,sans-serif" font-size="12.00">PRIMARY_DONE</text>
</g>
<!-- p_EVENT_OUT -->
<g id="node7" class="node"><title>p_EVENT_OUT</title>
<ellipse fill="#cce5ff" stroke="#004085" stroke-width="2" cx="324.476" cy="-189" rx="59.1271" ry="13.019"/>
<ellipse fill="none" stroke="#004085" stroke-width="2" cx="324.476" cy="-189" rx="63.1083" ry="17.0215"/>
<text text-anchor="middle" x="324.476" y="-184.2" font-family="Helvetica,Arial,sans-serif" font-size="12.00">EVENT_OUT</text>
</g>
<!-- p_RUNG_2 -->
<g id="node8" class="node"><title>p_RUNG_2</title>
<ellipse fill="#ffffff" stroke="#333333" stroke-width="1.5" cx="448.476" cy="-597" rx="42.3617" ry="13.0215"/>
<text text-anchor="middle" x="448.476" y="-592.2" font-family="Helvetica,Arial,sans-serif" font-size="12.00">RUNG_2</text>
</g>
<!-- p_FALLBACK_CALL -->
<g id="node9" class="node"><title>p_FALLBACK_CALL</title>
<ellipse fill="#ffffff" stroke="#333333" stroke-width="1.5" cx="653.476" cy="-597" rx="77.031" ry="13.0215"/>
<text text-anchor="middle" x="653.476" y="-592.2" font-family="Helvetica,Arial,sans-serif" font-size="12.00">FALLBACK_CALL</text>
</g>
<!-- p_FALLBACK_DONE -->
<g id="node10" class="node"><title>p_FALLBACK_DONE</title>
<ellipse fill="#ffffff" stroke="#333333" stroke-width="1.5" cx="717.476" cy="-433" rx="80.4647" ry="13.0215"/>
<text text-anchor="middle" x="717.476" y="-428.2" font-family="Helvetica,Arial,sans-serif" font-size="12.00">FALLBACK_DONE</text>
</g>
<!-- p_RUNG_3 -->
<g id="node11" class="node"><title>p_RUNG_3</title>
<ellipse fill="#ffffff" stroke="#333333" stroke-width="1.5" cx="567.476" cy="-433" rx="42.3617" ry="13.0215"/>
<text text-anchor="middle" x="567.476" y="-428.2" font-family="Helvetica,Arial,sans-serif" font-size="12.00">RUNG_3</text>
</g>
<!-- t_Sla_Start -->
<g id="node12" class="node"><title>t_Sla_Start</title>
<polygon fill="#fff3cd" stroke="#856404" points="264.995,-1023.5 199.957,-1023.5 199.957,-994.5 264.995,-994.5 264.995,-1023.5"/>
<text text-anchor="middle" x="232.476" y="-1004.2" font-family="Helvetica,Arial,sans-serif" font-size="12.00">Sla_Start</text>
</g>
<!-- t_Sla_CallPrimary -->
<g id="node13" class="node"><title>t_Sla_CallPrimary</title>
<polygon fill="#fff3cd" stroke="#856404" points="149.492,-769.5 47.46,-769.5 47.46,-740.5 149.492,-740.5 149.492,-769.5"/>
<text text-anchor="middle" x="98.4761" y="-750.2" font-family="Helvetica,Arial,sans-serif" font-size="12.00">Sla_CallPrimary</text>
</g>
<!-- t_Sla_AnswerPrimary -->
<g id="node14" class="node"><title>t_Sla_AnswerPrimary</title>
<polygon fill="#fff3cd" stroke="#856404" points="180.773,-365.5 16.1794,-365.5 16.1794,-336.5 180.773,-336.5 180.773,-365.5"/>
<text text-anchor="middle" x="98.4761" y="-346.2" font-family="Helvetica,Arial,sans-serif" font-size="12.00">Sla_AnswerPrimary prio=10</text>
</g>
<!-- t_Sla_Escalate1 -->
<g id="node15" class="node"><title>t_Sla_Escalate1</title>
<polygon fill="#fff3cd" stroke="#856404" points="470.452,-769.5 310.501,-769.5 310.501,-740.5 470.452,-740.5 470.452,-769.5"/>
<text text-anchor="middle" x="390.476" y="-750.2" font-family="Helvetica,Arial,sans-serif" font-size="12.00">Sla_Escalate1 [2000, ∞]ms</text>
</g>
<!-- t_Sla_CallFallback -->
<g id="node16" class="node"><title>t_Sla_CallFallback</title>
<polygon fill="#fff3cd" stroke="#856404" points="770.005,-529.5 664.947,-529.5 664.947,-500.5 770.005,-500.5 770.005,-529.5"/>
<text text-anchor="middle" x="717.476" y="-510.2" font-family="Helvetica,Arial,sans-serif" font-size="12.00">Sla_CallFallback</text>
</g>
<!-- t_Sla_AnswerPrimaryLate -->
<g id="node17" class="node"><title>t_Sla_AnswerPrimaryLate</title>
<polygon fill="#fff3cd" stroke="#856404" points="391.79,-365.5 203.162,-365.5 203.162,-336.5 391.79,-336.5 391.79,-365.5"/>
<text text-anchor="middle" x="297.476" y="-346.2" font-family="Helvetica,Arial,sans-serif" font-size="12.00">Sla_AnswerPrimaryLate prio=10</text>
</g>
<!-- t_Sla_AnswerFallback -->
<g id="node18" class="node"><title>t_Sla_AnswerFallback</title>
<polygon fill="#fff3cd" stroke="#856404" points="574.782,-365.5 414.17,-365.5 414.17,-336.5 574.782,-336.5 574.782,-365.5"/>
<text text-anchor="middle" x="494.476" y="-346.2" font-family="Helvetica,Arial,sans-serif" font-size="12.00">Sla_AnswerFallback prio=5</text>
</g>
<!-- t_Sla_Escalate2 -->
<g id="node19" class="node"><title>t_Sla_Escalate2</title>
<polygon fill="#fff3cd" stroke="#856404" points="642.452,-529.5 482.501,-529.5 482.501,-500.5 642.452,-500.5 642.452,-529.5"/>
<text text-anchor="middle" x="562.476" y="-510.2" font-family="Helvetica,Arial,sans-serif" font-size="12.00">Sla_Escalate2 [3000, ∞]ms</text>
</g>
<!-- t_Sla_AnswerCached -->
<g id="node20" class="node"><title>t_Sla_AnswerCached</title>
<polygon fill="#fff3cd" stroke="#856404" points="719.02,-365.5 597.932,-365.5 597.932,-336.5 719.02,-336.5 719.02,-365.5"/>
<text text-anchor="middle" x="658.476" y="-346.2" font-family="Helvetica,Arial,sans-serif" font-size="12.00">Sla_AnswerCached</text>
</g>
<!-- t_Sla_DiscardPrimary -->
<g id="node21" class="node"><title>t_Sla_DiscardPrimary</title>
<polygon fill="#fff3cd" stroke="#856404" points="454.768,-117.5 286.185,-117.5 286.185,-88.5 454.768,-88.5 454.768,-117.5"/>
<text text-anchor="middle" x="370.476" y="-98.2" font-family="Helvetica,Arial,sans-serif" font-size="12.00">Sla_DiscardPrimary prio=&#45;10</text>
</g>
<!-- t_Sla_DiscardFallback -->
<g id="node22" class="node"><title>t_Sla_DiscardFallback</title>
<polygon fill="#fff3cd" stroke="#856404" points="649.78,-117.5 477.172,-117.5 477.172,-88.5 649.78,-88.5 649.78,-117.5"/>
<text text-anchor="middle" x="563.476" y="-98.2" font-family="Helvetica,Arial,sans-serif" font-size="12.00">Sla_DiscardFallback prio=&#45;10</text>
</g>
<!-- j_Sla_Start__and_0 -->
<g id="node23" class="node"><title>j_Sla_Start__and_0</title>
<polygon fill="#ffffff" stroke="#333333" points="167.476,-933 156.476,-922 167.476,-911 178.476,-922 167.476,-933"/>
<text text-anchor="middle" x="167.476" y="-916.322" font-family="Helvetica,Arial,sans-serif" font-size="14.00">✚</text>
</g>
<!-- j_Sla_AnswerPrimary__and_0 -->
<g id="node24" class="node"><title>j_Sla_AnswerPrimary__and_0</title>
<polygon fill="#ffffff" stroke="#333333" points="302.476,-282 291.476,-271 302.476,-260 313.476,-271 302.476,-282"/>
<text text-anchor="middle" x="302.476" y="-265.322" font-family="Helvetica,Arial,sans-serif" font-size="14.00">✚</text>
</g>
<!-- j_Sla_Escalate1__and_0 -->
<g id="node25" class="node"><title>j_Sla_Escalate1__and_0</title>
<polygon fill="#ffffff" stroke="#333333" points="448.476,-686 437.476,-675 448.476,-664 459.476,-675 448.476,-686"/>
<text text-anchor="middle" x="448.476" y="-669.322" font-family="Helvetica,Arial,sans-serif" font-size="14.00">✚</text>
</g>
<!-- j_Sla_AnswerPrimaryLate__and_0 -->
<g id="node26" class="node"><title>j_Sla_AnswerPrimaryLate__and_0</title>
<polygon fill="#ffffff" stroke="#333333" points="346.476,-282 335.476,-271 346.476,-260 357.476,-271 346.476,-282"/>
<text text-anchor="middle" x="346.476" y="-265.322" font-family="Helvetica,Arial,sans-serif" font-size="14.00">✚</text>
</g>
<!-- j_Sla_AnswerFallback__and_0 -->
<g id="node27" class="node"><title>j_Sla_AnswerFallback__and_0</title>
<polygon fill="#ffffff" stroke="#333333" points="445.476,-282 434.476,-271 445.476,-260 456.476,-271 445.476,-282"/>
<text text-anchor="middle" x="445.476" y="-265.322" font-family="Helvetica,Arial,sans-serif" font-size="14.00">✚</text>
</g>
<!-- j_Sla_AnswerCached__and_0 -->
<g id="node28" class="node"><title>j_Sla_AnswerCached__and_0</title>
<polygon fill="#ffffff" stroke="#333333" points="489.476,-282 478.476,-271 489.476,-260 500.476,-271 489.476,-282"/>
<text text-anchor="middle" x="489.476" y="-265.322" font-family="Helvetica,Arial,sans-serif" font-size="14.00">✚</text>
</g>
<!-- n_Sla_Start__resets -->
<g id="node29" class="node"><title>n_Sla_Start__resets</title>
<polygon fill="#fff4e6" stroke="#fd7e14" stroke-width="1.5" points="390.006,-940 200.947,-940 200.947,-904 396.006,-904 396.006,-934 390.006,-940"/>
<polyline fill="none" stroke="#fd7e14" stroke-width="1.5" points="390.006,-940 390.006,-934 "/>
<polyline fill="none" stroke="#fd7e14" stroke-width="1.5" points="396.006,-934 390.006,-934 "/>
<text text-anchor="middle" x="298.476" y="-917.2" font-family="Helvetica,Arial,sans-serif" font-size="12.00">reset: ANSWERED, DISCARDED</text>
</g>
</g>
</svg>
