<?xml version="1.0" encoding="UTF-8" standalone="no"?>
<!DOCTYPE svg PUBLIC "-//W3C//DTD SVG 1.1//EN"
 "http://www.w3.org/Graphics/SVG/1.1/DTD/svg11.dtd">
<!-- Generated by graphviz version 2.29.20120711.0446 (20120711.0446)
 -->
<!-- Title: SketchFanoutMonitor Pages: 1 -->
<svg width="614pt" height="886pt"
 viewBox="0.00 0.00 613.60 885.60" xmlns="http://www.w3.org/2000/svg" xmlns:xlink="http://www.w3.org/1999/xlink">
<g id="graph0" class="graph" transform="scale(1 1) rotate(0) translate(10.8 874.8)">
<title>SketchFanoutMonitor</title>
<polygon fill="white" stroke="white" points="-10.8,11.8 -10.8,-874.8 603.8,-874.8 603.8,11.8 -10.8,11.8"/>
<!-- p_SEARCH_REQUEST&#45;&gt;t_Spawn -->
<g id="edge1" class="edge"><title>p_SEARCH_REQUEST&#45;&gt;t_Spawn</title>
<path fill="none" stroke="#333333" d="M258.99,-833.181C277.706,-819.348 308.986,-796.228 331.38,-779.675"/>
<polygon fill="#333333" stroke="#333333" points="333.522,-782.445 339.483,-773.686 329.361,-776.816 333.522,-782.445"/>
</g>
<!-- p_BATCH_PERMIT&#45;&gt;t_Spawn -->
<g id="edge2" class="edge"><title>p_BATCH_PERMIT&#45;&gt;t_Spawn</title>
<path fill="none" stroke="#333333" d="M413.801,-30.379C422.079,-58.4701 441,-129.316 441,-190 441,-602 441,-602 441,-602 441,-655.331 402.727,-708.167 378.16,-736.589"/>
<polygon fill="#333333" stroke="#333333" points="375.362,-734.468 371.335,-744.269 380.594,-739.118 375.362,-734.468"/>
</g>
<!-- p_JOB&#45;&gt;t_Worker -->
<g id="edge8" class="edge"><title>p_JOB&#45;&gt;t_Worker</title>
<path fill="none" stroke="#333333" d="M51.9596,-590.19C71.2269,-577.556 105.145,-555.315 129.645,-539.249"/>
<polygon fill="#333333" stroke="#333333" points="131.757,-542.049 138.201,-533.639 127.919,-536.196 131.757,-542.049"/>
</g>
<!-- p_JOB_PENDING&#45;&gt;t_Collect -->
<g id="edge11" class="edge"><title>p_JOB_PENDING&#45;&gt;t_Collect</title>
<path fill="none" stroke="#333333" d="M84.6735,-424.196C102.696,-411.437 131.717,-390.891 153.201,-375.681"/>
<polygon fill="#333333" stroke="#333333" points="155.463,-378.367 161.603,-369.733 151.419,-372.654 155.463,-378.367"/>
</g>
<!-- p_JOB_PENDING&#45;&gt;t_Finish -->
<g id="edge22" class="edge"><title>p_JOB_PENDING&#45;&gt;t_Finish</title>
<path fill="none" stroke="#dc3545" d="M68.3678,-423.939C69.7848,-393.995 76.6589,-314.727 110,-260 122.275,-239.851 142.537,-222.589 159.467,-210.498"/>
<ellipse fill="none" stroke="#dc3545" cx="163.197" cy="-207.916" rx="4.00002" ry="4.00002"/>
</g>
<!-- p_BATCH_OPEN&#45;&gt;t_Finish -->
<g id="edge17" class="edge"><title>p_BATCH_OPEN&#45;&gt;t_Finish</title>
<path fill="none" stroke="#333333" d="M276.594,-505.748C281.033,-467.448 290.798,-347.329 252,-260 243.752,-241.435 228.321,-224.646 214.796,-212.395"/>
<polygon fill="#333333" stroke="#333333" points="216.966,-209.643 207.122,-205.726 212.375,-214.927 216.966,-209.643"/>
</g>
<!-- p_COLLECTOR&#45;&gt;t_Collect -->
<g id="edge12" class="edge"><title>p_COLLECTOR&#45;&gt;t_Collect</title>
<path fill="none" stroke="#333333" d="M187.106,-286.065C189.31,-297.7 189.815,-315.632 188.621,-330.152"/>
<polygon fill="#333333" stroke="#333333" points="185.104,-330.081 187.376,-340.429 192.053,-330.922 185.104,-330.081"/>
</g>
<!-- p_COLLECTOR&#45;&gt;t_OrthogonalRead -->
<g id="edge16" class="edge"><title>p_COLLECTOR&#45;&gt;t_OrthogonalRead</title>
<path fill="none" stroke="#6c757d" stroke-dasharray="5,2" d="M203.386,-260.876C229.774,-247.764 274.002,-225.788 305.397,-210.188"/>
<polygon fill="#6c757d" stroke="#6c757d" points="307.296,-213.152 314.694,-205.568 304.181,-206.884 307.296,-213.152"/>
</g>
<!-- p_COLLECTOR&#45;&gt;t_Finish -->
<g id="edge18" class="edge"><title>p_COLLECTOR&#45;&gt;t_Finish</title>
<path fill="none" stroke="#333333" d="M182.215,-259.85C183.378,-248.216 185.166,-230.342 186.614,-215.86"/>
<polygon fill="#333333" stroke="#333333" points="190.127,-215.905 187.639,-205.606 183.162,-215.208 190.127,-215.905"/>
</g>
<!-- p_RESULT&#45;&gt;t_Collect -->
<g id="edge10" class="edge"><title>p_RESULT&#45;&gt;t_Collect</title>
<path fill="none" stroke="#333333" d="M197.114,-423.85C194.324,-412.102 190.023,-393.991 186.566,-379.435"/>
<polygon fill="#333333" stroke="#333333" points="189.948,-378.527 184.231,-369.606 183.137,-380.144 189.948,-378.527"/>
</g>
<!-- p_OBSERVE&#45;&gt;t_OrthogonalRead -->
<g id="edge14" class="edge"><title>p_OBSERVE&#45;&gt;t_OrthogonalRead</title>
<path fill="none" stroke="#333333" d="M355.57,-259.85C353.22,-248.102 349.598,-229.991 346.687,-215.435"/>
<polygon fill="#333333" stroke="#333333" points="350.115,-214.726 344.721,-205.606 343.25,-216.099 350.115,-214.726"/>
</g>
<!-- t_Spawn&#45;&gt;j_Spawn__and_0 -->
<g id="edge3" class="edge"><title>t_Spawn&#45;&gt;j_Spawn__and_0</title>
<path fill="none" stroke="#333333" d="M343.543,-744.413C327.857,-729.673 303.042,-706.353 287.967,-692.185"/>
<polygon fill="#333333" stroke="#333333" points="290.042,-689.333 280.358,-685.035 285.248,-694.434 290.042,-689.333"/>
</g>
<!-- t_Worker&#45;&gt;p_RESULT -->
<g id="edge9" class="edge"><title>t_Worker&#45;&gt;p_RESULT</title>
<path fill="none" stroke="#333333" d="M165.955,-504.429C172.304,-492.042 181.789,-473.534 189.137,-459.197"/>
<polygon fill="#333333" stroke="#333333" points="192.371,-460.56 193.817,-450.065 186.141,-457.368 192.371,-460.56"/>
</g>
<!-- t_Collect&#45;&gt;p_COLLECTOR -->
<g id="edge13" class="edge"><title>t_Collect&#45;&gt;p_COLLECTOR</title>
<path fill="none" stroke="#333333" d="M174.624,-340.429C172.564,-328.28 172.202,-310.243 173.54,-296.029"/>
<polygon fill="#333333" stroke="#333333" points="177.015,-296.445 174.894,-286.065 170.079,-295.502 177.015,-296.445"/>
</g>
<!-- t_OrthogonalRead&#45;&gt;p_SNAPSHOT -->
<g id="edge15" class="edge"><title>t_OrthogonalRead&#45;&gt;p_SNAPSHOT</title>
<path fill="none" stroke="#333333" d="M342,-176.129C342,-164.321 342,-147.022 342,-132.561"/>
<polygon fill="#333333" stroke="#333333" points="345.5,-132.193 342,-122.193 338.5,-132.193 345.5,-132.193"/>
</g>
<!-- t_Finish&#45;&gt;j_Finish__and_0 -->
<g id="edge19" class="edge"><title>t_Finish&#45;&gt;j_Finish__and_0</title>
<path fill="none" stroke="#333333" d="M190.321,-176.129C191.635,-162.33 193.663,-141.034 195.14,-125.529"/>
<polygon fill="#333333" stroke="#333333" points="198.636,-125.739 196.1,-115.452 191.667,-125.075 198.636,-125.739"/>
</g>
<!-- j_Spawn__and_0&#45;&gt;p_JOB -->
<g id="edge4" class="edge"><title>j_Spawn__and_0&#45;&gt;p_JOB</title>
<path fill="none" stroke="#333333" d="M267.351,-675.557C236.716,-665.775 121.885,-629.106 66.8182,-611.522"/>
<polygon fill="#333333" stroke="#333333" points="67.8561,-608.179 57.2653,-608.471 65.7267,-614.847 67.8561,-608.179"/>
</g>
<!-- j_Spawn__and_0&#45;&gt;p_JOB_PENDING -->
<g id="edge5" class="edge"><title>j_Spawn__and_0&#45;&gt;p_JOB_PENDING</title>
<path fill="none" stroke="#333333" d="M268.952,-673.629C246.691,-657.313 168.064,-597.631 119,-534 100.86,-510.475 85.7464,-479.585 76.7954,-459.282"/>
<polygon fill="#333333" stroke="#333333" points="79.9642,-457.791 72.8014,-449.984 73.5325,-460.554 79.9642,-457.791"/>
</g>
<!-- j_Spawn__and_0&#45;&gt;p_BATCH_OPEN -->
<g id="edge6" class="edge"><title>j_Spawn__and_0&#45;&gt;p_BATCH_OPEN</title>
<path fill="none" stroke="#333333" d="M275,-667.633C275,-642.358 275,-577.099 275,-542.426"/>
<polygon fill="#333333" stroke="#333333" points="278.5,-542.332 275,-532.332 271.5,-542.332 278.5,-542.332"/>
</g>
<!-- j_Spawn__and_0&#45;&gt;p_COLLECTOR -->
<g id="edge7" class="edge"><title>j_Spawn__and_0&#45;&gt;p_COLLECTOR</title>
<path fill="none" stroke="#333333" d="M280.606,-673.495C301.549,-656.121 374,-590.891 374,-520 374,-520 374,-520 374,-436 374,-357.428 278.997,-309.365 222.3,-287.677"/>
<polygon fill="#333333" stroke="#333333" points="223.463,-284.376 212.87,-284.177 221.027,-290.938 223.463,-284.376"/>
</g>
<!-- j_Finish__and_0&#45;&gt;p_SELECTION_READY -->
<g id="edge20" class="edge"><title>j_Finish__and_0&#45;&gt;p_SELECTION_READY</title>
<path fill="none" stroke="#333333" d="M197,-93.797C197,-81.6795 197,-61.0071 197,-44.3094"/>
<polygon fill="#333333" stroke="#333333" points="200.5,-44.0404 197,-34.0404 193.5,-44.0405 200.5,-44.0404"/>
</g>
<!-- j_Finish__and_0&#45;&gt;p_BATCH_PERMIT -->
<g id="edge21" class="edge"><title>j_Finish__and_0&#45;&gt;p_BATCH_PERMIT</title>
<path fill="none" stroke="#333333" d="M204.332,-101.04C230.515,-90.4679 320.604,-54.0941 372.451,-33.1606"/>
<polygon fill="#333333" stroke="#333333" points="374.009,-36.306 381.972,-29.3166 371.389,-29.8151 374.009,-36.306"/>
</g>
<!-- n_Spawn_emits&#45;&gt;t_Spawn -->
<g id="edge23" class="edge"><title>n_Spawn_emits&#45;&gt;t_Spawn</title>
<path fill="none" stroke="#888888" stroke-dasharray="5,2" d="M449.728,-827.799C428.07,-811.791 396.225,-788.253 376.321,-773.542"/>
</g>
<!-- p_SEARCH_REQUEST -->
<g id="node1" class="node"><title>p_SEARCH_REQUEST</title>
<ellipse fill="#f8d7da" stroke="#721c24" stroke-width="2" stroke-dasharray="5,2" cx="243" cy="-846" rx="89.3763" ry="13.0215"/>
<text text-anchor="middle" x="243" y="-841.2" font-family="Helvetica,Arial,sans-serif" font-size="12.00">SEARCH_REQUEST</text>
</g>
<!-- p_BATCH_PERMIT -->
<g id="node2" class="node"><title>p_BATCH_PERMIT</title>
<ellipse fill="#ffffff" stroke="#333333" stroke-width="1.5" cx="410" cy="-17" rx="80.5889" ry="13.0215"/>
<text text-anchor="middle" x="410" y="-12.2" font-family="Helvetica,Arial,sans-serif" font-size="12.00">BATCH_PERMIT ●</text>
</g>
<!-- p_JOB -->
<g id="node3" class="node"><title>p_JOB</title>
<ellipse fill="#ffffff" stroke="#333333" stroke-width="1.5" cx="37" cy="-601" rx="24.4817" ry="13.0215"/>
<text text-anchor="middle" x="37" y="-596.2" font-family="Helvetica,Arial,sans-serif" font-size="12.00">JOB</text>
</g>
<!-- p_JOB_PENDING -->
<g id="node4" class="node"><title>p_JOB_PENDING</title>
<ellipse fill="#ffffff" stroke="#333333" stroke-width="1.5" cx="68" cy="-437" rx="68.0511" ry="13.0215"/>
<text text-anchor="middle" x="68" y="-432.2" font-family="Helvetica,Arial,sans-serif" font-size="12.00">JOB_PENDING</text>
</g>
<!-- p_BATCH_OPEN -->
<g id="node5" class="node"><title>p_BATCH_OPEN</title>
<ellipse fill="#ffffff" stroke="#333333" stroke-width="1.5" cx="275" cy="-519" rx="65.0764" ry="13.0215"/>
<text text-anchor="middle" x="275" y="-514.2" font-family="Helvetica,Arial,sans-serif" font-size="12.00">BATCH_OPEN</text>
</g>
<!-- p_COLLECTOR -->
<g id="node6" class="node"><title>p_COLLECTOR</title>
<ellipse fill="#ffffff" stroke="#333333" stroke-width="1.5" cx="181" cy="-273" rx="60.3015" ry="13.0215"/>
<text text-anchor="middle" x="181" y="-268.2" font-family="Helvetica,Arial,sans-serif" font-size="12.00">COLLECTOR</text>
</g>
<!-- p_RESULT -->
<g id="node7" class="node"><title>p_RESULT</title>
<ellipse fill="#ffffff" stroke="#333333" stroke-width="1.5" cx="200" cy="-437" rx="41.0064" ry="13.0215"/>
<text text-anchor="middle" x="200" y="-432.2" font-family="Helvetica,Arial,sans-serif" font-size="12.00">RESULT</text>
</g>
<!-- p_OBSERVE -->
<g id="node8" class="node"><title>p_OBSERVE</title>
<ellipse fill="#f8d7da" stroke="#721c24" stroke-width="2" stroke-dasharray="5,2" cx="358" cy="-273" rx="49.0441" ry="13.0215"/>
<text text-anchor="middle" x="358" y="-268.2" font-family="Helvetica,Arial,sans-serif" font-size="12.00">OBSERVE</text>
</g>
<!-- p_SNAPSHOT -->
<g id="node9" class="node"><title>p_SNAPSHOT</title>
<ellipse fill="#cce5ff" stroke="#004085" stroke-width="2" cx="342" cy="-105" rx="55.2386" ry="13.019"/>
<ellipse fill="none" stroke="#004085" stroke-width="2" cx="342" cy="-105" rx="59.2441" ry="17.0215"/>
<text text-anchor="middle" x="342" y="-100.2" font-family="Helvetica,Arial,sans-serif" font-size="12.00">SNAPSHOT</text>
</g>
<!-- p_SELECTION_READY -->
<g id="node10" class="node"><title>p_SELECTION_READY</title>
<ellipse fill="#cce5ff" stroke="#004085" stroke-width="2" cx="197" cy="-17" rx="90.3095" ry="13.019"/>
<ellipse fill="none" stroke="#004085" stroke-width="2" cx="197" cy="-17" rx="94.2996" ry="17.0215"/>
<text text-anchor="middle" x="197" y="-12.2" font-family="Helvetica,Arial,sans-serif" font-size="12.00">SELECTION_READY</text>
</g>
<!-- t_Spawn -->
<g id="node11" class="node"><title>t_Spawn</title>
<polygon fill="#fff3cd" stroke="#856404" points="387,-773.5 329,-773.5 329,-744.5 387,-744.5 387,-773.5"/>
<text text-anchor="middle" x="358" y="-754.2" font-family="Helvetica,Arial,sans-serif" font-size="12.00">Spawn</text>
</g>
<!-- t_Worker -->
<g id="node12" class="node"><title>t_Worker</title>
<polygon fill="#fff3cd" stroke="#856404" points="188,-533.5 130,-533.5 130,-504.5 188,-504.5 188,-533.5"/>
<text text-anchor="middle" x="159" y="-514.2" font-family="Helvetica,Arial,sans-serif" font-size="12.00">Worker</text>
</g>
<!-- t_Collect -->
<g id="node13" class="node"><title>t_Collect</title>
<polygon fill="#fff3cd" stroke="#856404" points="210,-369.5 152,-369.5 152,-340.5 210,-340.5 210,-369.5"/>
<text text-anchor="middle" x="181" y="-350.2" font-family="Helvetica,Arial,sans-serif" font-size="12.00">Collect</text>
</g>
<!-- t_OrthogonalRead -->
<g id="node14" class="node"><title>t_OrthogonalRead</title>
<polygon fill="#fff3cd" stroke="#856404" points="394.045,-205.5 289.955,-205.5 289.955,-176.5 394.045,-176.5 394.045,-205.5"/>
<text text-anchor="middle" x="342" y="-186.2" font-family="Helvetica,Arial,sans-serif" font-size="12.00">OrthogonalRead</text>
</g>
<!-- t_Finish -->
<g id="node15" class="node"><title>t_Finish</title>
<polygon fill="#fff3cd" stroke="#856404" points="236.281,-205.5 141.719,-205.5 141.719,-176.5 236.281,-176.5 236.281,-205.5"/>
<text text-anchor="middle" x="189" y="-186.2" font-family="Helvetica,Arial,sans-serif" font-size="12.00">Finish prio=&#45;10</text>
</g>
<!-- j_Spawn__and_0 -->
<g id="node16" class="node"><title>j_Spawn__and_0</title>
<polygon fill="#ffffff" stroke="#333333" points="275,-690 264,-679 275,-668 286,-679 275,-690"/>
<text text-anchor="middle" x="275" y="-673.322" font-family="Helvetica,Arial,sans-serif" font-size="14.00">✚</text>
</g>
<!-- j_Finish__and_0 -->
<g id="node17" class="node"><title>j_Finish__and_0</title>
<polygon fill="#ffffff" stroke="#333333" points="197,-116 186,-105 197,-94 208,-105 197,-116"/>
<text text-anchor="middle" x="197" y="-99.3221" font-family="Helvetica,Arial,sans-serif" font-size="14.00">✚</text>
</g>
<!-- n_Spawn_emits -->
<g id="node18" class="node"><title>n_Spawn_emits</title>
<polygon fill="#ffffff" stroke="#888888" points="585.305,-864 354.695,-864 354.695,-828 591.305,-828 591.305,-858 585.305,-864"/>
<polyline fill="none" stroke="#888888" points="585.305,-864 585.305,-858 "/>
<polyline fill="none" stroke="#888888" points="591.305,-858 585.305,-858 "/>
<text text-anchor="middle" x="473" y="-841.2" font-family="Helvetica,Arial,sans-serif" font-size="12.00">action emits N×JOB + N×JOB_PENDING</text>
</g>
</g>
</svg>
