<?xml version="1.0" encoding="UTF-8" standalone="no"?>
<!DOCTYPE svg PUBLIC "-//W3C//DTD SVG 1.1//EN"
 "http://www.w3.org/Graphics/SVG/1.1/DTD/svg11.dtd">
<!-- Generated by graphviz version 2.42.4 (0)
 -->
<!-- Title: StaleResultValidation Pages: 1 -->
<svg width="898pt" height="107pt"
 viewBox="0.00 0.00 898.00 107.00" xmlns="http://www.w3.org/2000/svg" xmlns:xlink="http://www.w3.org/1999/xlink">
<g id="graph0" class="graph" transform="scale(1 1) rotate(0) translate(4 103)">
<title>StaleResultValidation</title>
<polygon fill="white" stroke="transparent" points="-4,4 -4,-103 894,-103 894,4 -4,4"/>
<!-- p_INCOMING_RESULT&#45;&gt;t_CommitResult -->
<g id="edge1" class="edge">
<title>p_INCOMING_RESULT&#45;&gt;t_CommitResult</title>
<path fill="none" stroke="#333333" d="M462.92,-84.17C476.76,-81.35 501.3,-76.34 526.05,-71.3"/>
<polygon fill="#333333" stroke="#333333" points="526.79,-74.72 535.89,-69.29 525.39,-67.86 526.79,-74.72"/>
</g>
<!-- p_LATEST_GENERATION&#45;&gt;t_CommitResult -->
<g id="edge5" class="edge">
<title>p_LATEST_GENERATION&#45;&gt;t_CommitResult</title>
<path fill="none" stroke="#6c757d" stroke-dasharray="5,2" d="M462.92,-27.75C476.76,-30.49 501.3,-35.33 526.05,-40.21"/>
<polygon fill="#6c757d" stroke="#6c757d" points="525.4,-43.65 535.89,-42.16 526.76,-36.79 525.4,-43.65"/>
<text text-anchor="middle" x="499.5" y="-38.5" font-family="Helvetica,Arial,sans-serif" font-size="10.00">read</text>
</g>
<!-- p_USER_NEW_TURN&#45;&gt;t_BumpGeneration -->
<g id="edge6" class="edge">
<title>p_USER_NEW_TURN&#45;&gt;t_BumpGeneration</title>
<path fill="none" stroke="#333333" d="M134.12,-25.5C144.53,-25.5 160.83,-25.5 178.43,-25.5"/>
<polygon fill="#333333" stroke="#333333" points="178.91,-29 188.91,-25.5 178.91,-22 178.91,-29"/>
</g>
<!-- t_CommitResult&#45;&gt;j_CommitResult__xor_0 -->
<g id="edge2" class="edge">
<title>t_CommitResult&#45;&gt;j_CommitResult__xor_0</title>
<path fill="none" stroke="#333333" d="M673.3,-55.5C689.51,-55.5 705.6,-55.5 717.68,-55.5"/>
<polygon fill="#333333" stroke="#333333" points="717.9,-59 727.9,-55.5 717.9,-52 717.9,-59"/>
</g>
<!-- t_BumpGeneration&#45;&gt;p_LATEST_GENERATION -->
<g id="edge7" class="edge">
<title>t_BumpGeneration&#45;&gt;p_LATEST_GENERATION</title>
<path fill="none" stroke="#fd7e14" stroke-width="2" d="M342.25,-25.5C373.09,-25.5 406.39,-25.5 427.57,-25.5"/>
<polygon fill="#fd7e14" stroke="#fd7e14" stroke-width="2" points="427.72,-29 437.72,-25.5 427.72,-22 427.72,-29"/>
<text text-anchor="middle" x="390" y="-28.5" font-family="Helvetica,Arial,sans-serif" font-size="10.00">reset+out</text>
</g>
<!-- j_CommitResult__xor_0&#45;&gt;p_COMMITTED -->
<g id="edge3" class="edge">
<title>j_CommitResult__xor_0&#45;&gt;p_COMMITTED</title>
<path fill="none" stroke="#333333" d="M748.54,-57.44C769.54,-62.21 824.22,-74.63 854.87,-81.59"/>
<polygon fill="#333333" stroke="#333333" points="854.44,-85.08 864.97,-83.88 855.99,-78.25 854.44,-85.08"/>
<text text-anchor="middle" x="807.5" y="-79.5" font-family="Helvetica,Arial,sans-serif" font-size="10.00">COMMITTED</text>
</g>
<!-- j_CommitResult__xor_0&#45;&gt;p_DISCARDED -->
<g id="edge4" class="edge">
<title>j_CommitResult__xor_0&#45;&gt;p_DISCARDED</title>
<path fill="none" stroke="#333333" d="M745.25,-50.56C752,-44.56 764.35,-34.72 777,-30.5 802.61,-21.95 833.98,-21.97 854.57,-23.28"/>
<polygon fill="#333333" stroke="#333333" points="854.54,-26.79 864.79,-24.1 855.1,-19.82 854.54,-26.79"/>
<text text-anchor="middle" x="807.5" y="-33.5" font-family="Helvetica,Arial,sans-serif" font-size="10.00">DISCARDED</text>
</g>
<!-- p_INCOMING_RESULT -->
<g id="node1" class="node">
<title>p_INCOMING_RESULT</title>
<ellipse fill="#f8d7da" stroke="#721c24" stroke-width="2" stroke-dasharray="5,2" cx="450.5" cy="-86.5" rx="12.5" ry="12.5"/>
<text text-anchor="middle" x="381.5" y="-64.4" font-family="Helvetica,Arial,sans-serif" font-size="12.00">INCOMING_RESULT</text>
</g>
<!-- p_COMMITTED -->
<g id="node2" class="node">
<title>p_COMMITTED</title>
<ellipse fill="#f8d7da" stroke="#721c24" stroke-width="2" stroke-dasharray="5,2" cx="877.5" cy="-86.5" rx="12.5" ry="12.5"/>
<text text-anchor="middle" x="828.5" y="-64.4" font-family="Helvetica,Arial,sans-serif" font-size="12.00">COMMITTED</text>
</g>
<!-- p_DISCARDED -->
<g id="node3" class="node">
<title>p_DISCARDED</title>
<ellipse fill="#f8d7da" stroke="#721c24" stroke-width="2" stroke-dasharray="5,2" cx="877.5" cy="-25.5" rx="12.5" ry="12.5"/>
<text text-anchor="middle" x="830" y="-3.4" font-family="Helvetica,Arial,sans-serif" font-size="12.00">DISCARDED</text>
</g>
<!-- p_LATEST_GENERATION -->
<g id="node4" class="node">
<title>p_LATEST_GENERATION</title>
<ellipse fill="#ffffff" stroke="#333333" stroke-width="1.5" cx="450.5" cy="-25.5" rx="12.5" ry="12.5"/>
<text text-anchor="middle" x="527.5" y="-3.4" font-family="Helvetica,Arial,sans-serif" font-size="12.00">LATEST_GENERATION</text>
</g>
<!-- p_USER_NEW_TURN -->
<g id="node5" class="node">
<title>p_USER_NEW_TURN</title>
<ellipse fill="#f8d7da" stroke="#721c24" stroke-width="2" stroke-dasharray="5,2" cx="121.5" cy="-25.5" rx="12.5" ry="12.5"/>
<text text-anchor="middle" x="54.5" y="-3.4" font-family="Helvetica,Arial,sans-serif" font-size="12.00">USER_NEW_TURN</text>
</g>
<!-- t_CommitResult -->
<g id="node6" class="node">
<title>t_CommitResult</title>
<polygon fill="#fff3cd" stroke="#856404" points="673,-70 536,-70 536,-41 673,-41 673,-70"/>
<text text-anchor="middle" x="604.5" y="-52.4" font-family="Helvetica,Arial,sans-serif" font-size="12.00">CommitResult [0, ∞]ms</text>
</g>
<!-- t_BumpGeneration -->
<g id="node7" class="node">
<title>t_BumpGeneration</title>
<polygon fill="#fff3cd" stroke="#856404" points="342,-40 189,-40 189,-11 342,-11 342,-40"/>
<text text-anchor="middle" x="265.5" y="-22.4" font-family="Helvetica,Arial,sans-serif" font-size="12.00">BumpGeneration [0, ∞]ms</text>
</g>
<!-- j_CommitResult__xor_0 -->
<g id="node8" class="node">
<title>j_CommitResult__xor_0</title>
<polygon fill="#ffffff" stroke="#333333" points="739,-66.5 728,-55.5 739,-44.5 750,-55.5 739,-66.5"/>
<text text-anchor="middle" x="739" y="-51.8" font-family="Helvetica,Arial,sans-serif" font-size="14.00">✕</text>
</g>
</g>
</svg>
